<?xml version="1.0" standalone="no"?>
<!DOCTYPE svg PUBLIC "-//W3C//DTD SVG 20010904//EN"
 "http://www.w3.org/TR/2001/REC-SVG-20010904/DTD/svg10.dtd">
<svg version="1.0" xmlns="http://www.w3.org/2000/svg"
 width="512.000000pt" height="512.000000pt" viewBox="0 0 512.000000 512.000000"
 preserveAspectRatio="xMidYMid meet">
<metadata>
Created by potrace 1.14, written by Peter Selinger 2001-2017
</metadata>
<g transform="translate(0.000000,512.000000) scale(0.100000,-0.100000)"
fill="#000000" stroke="none">
<path d="M2435 4661 c-3 -2 -26 -3 -52 -2 -26 0 -86 -4 -133 -10 -110 -14
-137 -16 -245 -24 -190 -14 -352 -37 -386 -56 -11 -5 -19 -7 -19 -4 0 4 -29
-14 -65 -39 -36 -25 -70 -46 -74 -46 -5 0 -14 -7 -21 -15 -7 -8 -16 -13 -20
-10 -5 3 -10 2 -12 -3 -5 -11 -107 -67 -149 -81 -67 -22 -214 -113 -281 -175
-37 -33 -82 -74 -100 -89 -143 -121 -211 -184 -228 -211 -10 -18 -27 -41 -37
-53 -10 -12 -25 -30 -33 -40 -9 -10 -26 -43 -39 -73 -13 -29 -34 -71 -47 -92
-13 -21 -24 -43 -24 -50 0 -7 -17 -38 -38 -68 -20 -30 -54 -94 -75 -141 -21
-47 -49 -97 -62 -112 -14 -14 -25 -28 -25 -31 0 -3 -12 -18 -26 -33 -14 -15
-30 -39 -35 -52 -9 -23 -35 -182 -45 -276 -3 -27 -10 -70 -15 -95 -5 -25 -12
-58 -15 -75 -13 -61 -6 -171 21 -395 3 -19 7 -57 10 -85 11 -106 68 -301 94
-325 12 -11 71 -139 106 -230 20 -52 42 -101 50 -110 13 -15 99 -189 100 -202
0 -4 29 -38 65 -76 123 -129 169 -180 193 -219 48 -75 166 -179 258 -228 11
-5 19 -13 19 -18 0 -4 4 -6 8 -3 5 3 40 -23 80 -57 69 -61 167 -116 307 -174
74 -31 220 -83 245 -88 24 -4 52 -15 93 -35 20 -10 35 -15 32 -10 -3 4 21 -5
52 -21 85 -44 209 -74 285 -70 15 1 29 -2 32 -7 2 -4 52 -8 109 -7 58 0 103
-3 101 -7 -4 -6 56 -4 219 7 86 6 110 9 162 23 22 6 59 13 83 16 23 3 47 8 53
12 6 3 30 8 53 10 22 2 56 8 75 13 18 6 36 10 40 9 16 -3 102 15 107 23 3 5
10 7 15 4 5 -4 9 -1 9 4 0 6 3 10 8 10 4 -1 9 0 12 1 3 1 12 3 20 5 44 8 192
65 318 122 78 36 148 66 155 67 11 2 47 20 129 64 21 11 63 44 94 73 30 30 66
61 80 69 13 8 24 20 24 27 0 7 6 13 14 13 8 0 18 5 22 12 5 7 2 9 -7 3 -14 -7
-4 2 85 82 25 22 46 46 46 52 0 6 7 11 15 11 8 0 15 9 15 19 0 10 6 21 14 24
8 3 17 19 21 36 4 17 11 29 16 25 5 -3 9 1 9 9 0 8 13 32 29 54 16 22 32 49
36 62 4 12 41 73 82 134 105 156 109 167 138 297 2 8 4 15 5 15 2 0 11 38 12
53 1 6 4 12 8 12 4 0 6 12 5 28 -1 15 1 32 4 37 7 12 10 29 16 80 2 22 7 56
10 75 12 76 17 116 18 143 0 15 4 27 10 27 5 0 6 11 3 25 -4 15 -2 25 4 25 6
0 8 10 4 25 -3 14 -2 25 2 25 24 0 26 475 3 515 -4 6 -5 20 -4 33 1 12 -1 22
-5 22 -3 0 -6 8 -7 18 -1 24 -12 69 -28 122 -41 136 -67 225 -69 234 -1 6 -5
17 -9 24 -5 6 -6 12 -3 12 3 0 -3 20 -14 45 -11 25 -20 47 -20 50 0 3 0 6 -1
8 0 1 -2 9 -4 18 -11 59 -111 248 -144 272 -9 6 -34 37 -56 67 -22 30 -42 57
-45 60 -4 3 -28 39 -55 80 -63 99 -102 139 -210 215 -49 35 -117 89 -150 120
-44 41 -98 75 -207 130 -82 41 -148 72 -148 70 0 -3 -13 1 -30 10 -16 8 -33
16 -37 16 -5 1 -18 5 -31 10 -13 5 -26 9 -29 9 -3 0 -64 29 -137 64 -123 60
-200 83 -326 100 -19 2 -57 8 -85 11 -27 4 -61 9 -75 11 -75 12 -317 24 -325
15z m210 -581 c0 -1 9 -3 20 -4 93 -12 153 -22 158 -26 1 -1 13 -3 27 -5 98
-12 198 -54 256 -109 13 -12 54 -37 91 -55 87 -44 175 -113 287 -227 61 -61
138 -158 159 -199 22 -45 67 -184 91 -285 10 -41 24 -90 32 -108 8 -18 12 -38
9 -43 -4 -5 -1 -9 5 -9 7 0 10 -7 6 -15 -3 -8 -2 -15 3 -15 7 0 15 -31 27
-105 11 -66 14 -86 20 -140 9 -84 10 -301 1 -355 -4 -25 -12 -81 -18 -125 -6
-44 -23 -120 -39 -170 -16 -49 -31 -108 -35 -130 -12 -73 -57 -250 -71 -276
-7 -15 -10 -29 -7 -33 4 -3 2 -6 -4 -6 -6 0 -14 -8 -17 -17 -14 -39 -61 -106
-113 -162 -53 -57 -136 -161 -128 -161 3 0 -20 -27 -51 -60 -39 -41 -78 -69
-125 -91 -37 -18 -70 -32 -73 -31 -11 2 -191 -90 -210 -106 -10 -10 -19 -15
-20 -13 0 3 -13 -3 -28 -13 -14 -9 -79 -30 -144 -46 -165 -41 -391 -45 -577
-10 -60 12 -178 49 -192 62 -5 4 -16 8 -25 8 -8 1 -31 14 -50 30 -19 17 -38
30 -42 30 -16 0 -145 63 -175 86 -17 13 -34 24 -37 24 -11 0 -160 141 -211
201 -111 128 -148 192 -215 374 -19 50 -42 102 -51 116 -21 30 -73 190 -88
269 -22 119 -30 306 -18 435 3 33 11 113 17 179 5 65 12 121 14 125 6 9 17 84
20 136 6 86 71 283 97 293 5 2 7 8 3 13 -3 5 0 9 5 9 6 0 11 6 11 14 0 7 16
30 35 50 19 21 35 44 35 52 0 8 5 12 10 9 6 -3 10 1 10 10 0 8 6 18 13 21 8 3
20 20 27 39 8 19 18 35 22 35 5 0 6 5 3 10 -3 6 -1 10 6 10 7 0 10 3 6 6 -3 4
1 13 9 21 8 8 11 19 8 25 -4 6 -2 8 4 4 6 -3 13 3 17 14 3 11 11 20 16 20 5 0
9 7 9 15 0 15 74 95 88 95 4 0 22 14 40 31 17 16 32 28 32 25 0 -4 8 2 18 12
10 9 58 37 107 62 50 25 96 53 103 63 7 9 22 17 34 17 11 0 48 13 82 29 33 16
68 29 76 29 15 0 52 7 100 16 65 13 115 18 245 22 77 3 145 7 150 9 9 2 100
-2 100 -5z"/>
</g>
</svg>
